REM DIRINDEX 1\2,1\4,1\5,1\6,1\7,1\3\8,1\3\9,1\3\10
REM DIRNAME cjc113,folder01,folder02,folder03,folder04,folder05,folder06,folder07,folder08,folder09
TITLE ""
FILE "DB4500_5th_6C_40.mp3" MP3
  TRACK 01 AUDIO
    TITLE "8:cjc113_4897"
    INDEX 01 00:00:00
  TRACK 02 AUDIO
    TITLE "0:"
    INDEX 01 00:01:09
  TRACK 03 AUDIO
    TITLE "9:cjc113_4898"
    INDEX 01 00:01:21
  TRACK 04 AUDIO
    TITLE "0:"
    INDEX 01 00:02:45
  TRACK 05 AUDIO
    TITLE "10:cjc113_4899"
    INDEX 01 00:02:53
  TRACK 06 AUDIO
    TITLE "0:"
    INDEX 01 00:05:54
  TRACK 07 AUDIO
    TITLE "8:cjc113_4900"
    INDEX 01 00:06:14
  TRACK 08 AUDIO
    TITLE "0:"
    INDEX 01 00:07:15
  TRACK 09 AUDIO
    TITLE "9:cjc113_4901"
    INDEX 01 00:07:27
  TRACK 10 AUDIO
    TITLE "0:"
    INDEX 01 00:08:36
  TRACK 11 AUDIO
    TITLE "10:cjc113_4902"
    INDEX 01 00:08:44
  TRACK 12 AUDIO
    TITLE "0:"
    INDEX 01 00:11:21
  TRACK 13 AUDIO
    TITLE "8:cjc113_4903"
    INDEX 01 00:11:54
  TRACK 14 AUDIO
    TITLE "0:"
    INDEX 01 00:12:60
  TRACK 15 AUDIO
    TITLE "9:cjc113_4904"
    INDEX 01 00:12:67
  TRACK 16 AUDIO
    TITLE "0:"
    INDEX 01 00:14:21
  TRACK 17 AUDIO
    TITLE "10:cjc113_4905"
    INDEX 01 00:14:25
  TRACK 18 AUDIO
    TITLE "0:"
    INDEX 01 00:17:43
  TRACK 19 AUDIO
    TITLE "8:cjc113_4906"
    INDEX 01 00:17:72
  TRACK 20 AUDIO
    TITLE "0:"
    INDEX 01 00:19:03
  TRACK 21 AUDIO
    TITLE "9:cjc113_4907"
    INDEX 01 00:19:15
  TRACK 22 AUDIO
    TITLE "0:"
    INDEX 01 00:20:30
  TRACK 23 AUDIO
    TITLE "10:cjc113_4908"
    INDEX 01 00:20:37
  TRACK 24 AUDIO
    TITLE "0:"
    INDEX 01 00:23:18
  TRACK 25 AUDIO
    TITLE "8:cjc113_4909"
    INDEX 01 00:23:67
  TRACK 26 AUDIO
    TITLE "0:"
    INDEX 01 00:25:07
  TRACK 27 AUDIO
    TITLE "9:cjc113_4910"
    INDEX 01 00:25:21
  TRACK 28 AUDIO
    TITLE "0:"
    INDEX 01 00:26:60
  TRACK 29 AUDIO
    TITLE "10:cjc113_4911"
    INDEX 01 00:27:02
  TRACK 30 AUDIO
    TITLE "0:"
    INDEX 01 00:30:30
  TRACK 31 AUDIO
    TITLE "8:cjc113_4912"
    INDEX 01 00:30:71
  TRACK 32 AUDIO
    TITLE "0:"
    INDEX 01 00:32:27
  TRACK 33 AUDIO
    TITLE "9:cjc113_4913"
    INDEX 01 00:32:41
  TRACK 34 AUDIO
    TITLE "0:"
    INDEX 01 00:34:06
  TRACK 35 AUDIO
    TITLE "10:cjc113_4914"
    INDEX 01 00:34:22
  TRACK 36 AUDIO
    TITLE "0:"
    INDEX 01 00:38:30
  TRACK 37 AUDIO
    TITLE "8:cjc113_4915"
    INDEX 01 00:38:65
  TRACK 38 AUDIO
    TITLE "0:"
    INDEX 01 00:40:13
  TRACK 39 AUDIO
    TITLE "9:cjc113_4916"
    INDEX 01 00:40:24
  TRACK 40 AUDIO
    TITLE "0:"
    INDEX 01 00:41:51
  TRACK 41 AUDIO
    TITLE "10:cjc113_4917"
    INDEX 01 00:41:65
  TRACK 42 AUDIO
    TITLE "0:"
    INDEX 01 00:45:63
  TRACK 43 AUDIO
    TITLE "8:cjc113_4918"
    INDEX 01 00:46:31
  TRACK 44 AUDIO
    TITLE "0:"
    INDEX 01 00:47:42
  TRACK 45 AUDIO
    TITLE "9:cjc113_4919"
    INDEX 01 00:47:60
  TRACK 46 AUDIO
    TITLE "0:"
    INDEX 01 00:49:23
  TRACK 47 AUDIO
    TITLE "10:cjc113_4920"
    INDEX 01 00:49:41
  TRACK 48 AUDIO
    TITLE "0:"
    INDEX 01 00:52:18
  TRACK 49 AUDIO
    TITLE "8:cjc113_4921"
    INDEX 01 00:52:55
  TRACK 50 AUDIO
    TITLE "0:"
    INDEX 01 00:53:66
  TRACK 51 AUDIO
    TITLE "9:cjc113_4922"
    INDEX 01 00:54:05
  TRACK 52 AUDIO
    TITLE "0:"
    INDEX 01 00:56:24
  TRACK 53 AUDIO
    TITLE "10:cjc113_4923"
    INDEX 01 00:56:37
  TRACK 54 AUDIO
    TITLE "0:"
    INDEX 01 00:59:36
  TRACK 55 AUDIO
    TITLE "10:cjc113_4924"
    INDEX 01 01:00:00
  TRACK 56 AUDIO
    TITLE "0:"
    INDEX 01 01:03:51
  TRACK 57 AUDIO
    TITLE "8:cjc113_4925"
    INDEX 01 01:04:13
  TRACK 58 AUDIO
    TITLE "0:"
    INDEX 01 01:05:22
  TRACK 59 AUDIO
    TITLE "9:cjc113_4926"
    INDEX 01 01:05:40
  TRACK 60 AUDIO
    TITLE "0:"
    INDEX 01 01:07:04
  TRACK 61 AUDIO
    TITLE "10:cjc113_4927"
    INDEX 01 01:07:21
  TRACK 62 AUDIO
    TITLE "0:"
    INDEX 01 01:11:66
  TRACK 63 AUDIO
    TITLE "8:cjc113_4928"
    INDEX 01 01:12:34
  TRACK 64 AUDIO
    TITLE "0:"
    INDEX 01 01:13:42
  TRACK 65 AUDIO
    TITLE "9:cjc113_4929"
    INDEX 01 01:13:59
  TRACK 66 AUDIO
    TITLE "0:"
    INDEX 01 01:15:13
  TRACK 67 AUDIO
    TITLE "10:cjc113_4930"
    INDEX 01 01:15:27
  TRACK 68 AUDIO
    TITLE "0:"
    INDEX 01 01:18:09
  TRACK 69 AUDIO
    TITLE "8:cjc113_4931"
    INDEX 01 01:18:45
  TRACK 70 AUDIO
    TITLE "0:"
    INDEX 01 01:19:60
  TRACK 71 AUDIO
    TITLE "9:cjc113_4932"
    INDEX 01 01:20:00
  TRACK 72 AUDIO
    TITLE "0:"
    INDEX 01 01:21:18
  TRACK 73 AUDIO
    TITLE "10:cjc113_4933"
    INDEX 01 01:21:31
  TRACK 74 AUDIO
    TITLE "0:"
    INDEX 01 01:25:04
  TRACK 75 AUDIO
    TITLE "8:cjc113_4934"
    INDEX 01 01:25:43
  TRACK 76 AUDIO
    TITLE "0:"
    INDEX 01 01:26:42
  TRACK 77 AUDIO
    TITLE "9:cjc113_4935"
    INDEX 01 01:26:62
  TRACK 78 AUDIO
    TITLE "0:"
    INDEX 01 01:28:51
  TRACK 79 AUDIO
    TITLE "10:cjc113_4936"
    INDEX 01 01:28:69
  TRACK 80 AUDIO
    TITLE "0:"
    INDEX 01 01:31:34
